<svg width="257" height="92" viewBox="0 0 257 92" fill="none" xmlns="http://www.w3.org/2000/svg">
<path d="M25.9007 36.3421L26.5993 31.0415L29.8043 31.699C34.8173 32.6029 39.9535 34.2876 39.9535 39.5882C39.9535 46.5324 31.2424 50.3949 23.1888 50.3949C15.1763 50.3949 9.30038 46.6146 9.30038 37.4105C9.30038 34 10.0811 30.8361 10.5742 29.0281L14.6421 29.7266C14.1079 32.0277 13.8614 34.4109 13.8614 36.5887C13.8614 41.9304 17.5595 44.1492 23.6408 44.1492C29.5167 44.1492 35.6802 42.0947 35.6802 40.4511C35.6802 39.1362 31.5712 37.3283 25.9007 36.3421ZM19.3674 60.5441L15.9159 57.0515L19.3674 53.5588L22.2437 56.4351L25.12 53.5588L28.6127 57.0515L25.12 60.5441L22.2437 57.6267L19.3674 60.5441ZM46.9257 0.287628L48.7336 -1.905e-06L49.2267 3.32829C49.5143 5.67042 48.3638 7.23184 46.4737 7.23184C44.5835 7.23184 44.1315 5.71151 43.885 4.76644C43.4741 6.20459 42.5701 7.68383 40.6389 7.68383C38.4611 7.68383 37.7626 5.7526 37.7626 3.61592V1.97232H39.6527V3.41047C39.6527 5.3417 40.228 5.79369 40.9676 5.79369C42.3647 5.79369 43.3919 4.15009 43.3919 1.52033H45.1588C45.1588 3.94464 45.3232 5.3417 46.638 5.3417C46.8846 5.3417 47.7475 5.30061 47.4598 3.57483L46.9257 0.287628ZM26.5874 31.0415C33.0796 31.0004 37.3119 29.8499 41.1333 28.2474V10.4554H46.1051V31.3702C46.1051 34.4931 47.3789 34.7807 50.7483 34.7807V39.5061C50.7483 40.6977 50.132 41.314 48.9404 41.314C44.9135 41.314 41.1333 38.7664 41.1333 32.3153V29.6445L39.7773 33.1371C35.6272 34.6574 32.7098 35.2327 27.6146 35.3149L26.5874 31.0415ZM50.7862 34.7807H59.9082V39.5061C59.9082 40.6977 59.2918 41.314 58.1002 41.314H48.9782V36.5887C48.9782 35.3971 49.6357 34.7807 50.7862 34.7807ZM59.895 34.7807H69.017V39.5061C69.017 40.6977 68.4006 41.314 67.209 41.314H58.0871V36.5887C58.0871 35.3971 58.7445 34.7807 59.895 34.7807ZM69.0038 34.7807H78.1258V39.5061C78.1258 40.6977 77.5095 41.314 76.3179 41.314H67.1959V36.5887C67.1959 35.3971 67.8533 34.7807 69.0038 34.7807ZM78.1126 34.7807H87.2346V39.5061C87.2346 40.6977 86.6183 41.314 85.4267 41.314H76.3047V36.5887C76.3047 35.3971 76.9621 34.7807 78.1126 34.7807ZM87.2215 34.7807H96.3435V39.5061C96.3435 40.6977 95.7271 41.314 94.5355 41.314H85.4135V36.5887C85.4135 35.3971 86.071 34.7807 87.2215 34.7807ZM96.3303 34.7807H105.452V39.5061C105.452 40.6977 104.836 41.314 103.644 41.314H94.5223V36.5887C94.5223 35.3971 95.1798 34.7807 96.3303 34.7807ZM132.559 41.314H132.148C125.244 41.314 123.108 37.205 123.395 32.644C116.78 34.6574 113.411 41.314 103.631 41.314V36.5476C103.631 35.3971 104.247 34.7807 105.398 34.7807C110.616 34.7807 115.054 32.192 119.574 29.7677C116.821 28.4939 114.561 27.1791 112.465 27.1791C110.658 27.1791 109.589 28.2474 108.808 29.6445L105.028 27.4667C106.097 24.5904 108.151 21.4265 112.589 21.4265C118.588 21.4265 122.081 27.3434 129.353 27.3434H130.997V32.1099H127.546C127.833 34.4931 130.052 34.7807 134.408 34.7807V39.5061C134.408 40.6977 133.75 41.314 132.559 41.314ZM153.606 17.3966L142.676 20.1497L142.306 18.4239L153.236 15.6298L153.606 17.3966ZM132.603 41.314V36.5476C132.603 35.3971 133.219 34.7807 134.37 34.7807H134.411C135.849 34.7807 136.835 34.2876 137.862 31.9455L138.766 29.9321C140.574 25.8231 143.779 23.1933 147.477 23.1933C151.833 23.1933 155.613 26.686 155.613 32.4386C155.613 38.109 151.956 41.314 147.025 41.314C143.82 41.314 141.067 39.9991 138.684 37.9035L138.602 38.0679C137.575 39.8348 135.767 41.314 132.603 41.314ZM141.396 33.7945C143.204 34.7807 144.889 35.3971 146.984 35.3971C149.532 35.3971 151.34 34.4931 151.34 32.5208C151.34 30.4663 149.45 28.9459 147.108 28.9459C144.807 28.9459 142.711 30.3841 141.725 33.096L141.396 33.7945Z" fill="#3C1C54"/>
<path opacity="0.8" d="M11.0397 70.772C10.8837 71.734 10.8057 72.592 10.8057 73.294C10.8057 76.388 12.5217 77.168 16.7077 77.168C20.7377 77.168 24.1957 76.466 26.6137 75.842C26.5357 75.374 26.5097 74.88 26.5097 74.334V60.918H29.1617V73.84C29.1617 75.14 29.4477 76.076 30.5917 76.7V79.664H28.9537C27.8097 78.988 27.0557 78 26.7177 76.518L26.0937 78.728C24.1697 79.534 20.3997 80.626 16.3177 80.626C10.4417 80.626 8.30966 78.364 8.30966 74.386C8.30966 73.164 8.51766 71.838 8.82966 70.408L11.0397 70.772ZM19.8537 65.494L20.7637 65.338L21.0497 66.898L20.2957 67.028C19.3597 67.184 17.7217 67.47 17.7217 67.782C17.7217 67.964 18.3457 68.042 19.1257 68.198L19.3337 68.224C20.6857 68.484 21.3877 68.848 21.3877 70.07C21.3877 71.292 20.6857 72.722 18.1897 72.722H16.1877V71.032H18.1897C19.7497 71.032 20.1917 70.798 20.1917 70.512C20.1917 70.226 19.7757 70.096 19.2817 69.992L18.9177 69.914C17.6177 69.706 16.4737 69.394 16.4737 68.042C16.4737 66.17 18.6317 65.702 19.8537 65.494ZM28.9411 76.7H30.5791C31.3851 77.142 32.9451 77.376 34.7391 77.376C37.0271 77.376 39.1851 76.934 41.3431 76.206C41.2911 75.79 41.2651 75.348 41.2651 74.854V71.136H43.8911V74.438C43.8911 76.648 45.0351 76.856 46.8291 76.856V79.274C46.8291 79.95 46.4651 80.314 45.7891 80.314C43.7091 80.314 42.0711 79.534 41.4991 77.116L40.9011 79.17C39.3411 80.262 35.7531 80.782 33.9071 80.782C31.9831 80.782 30.2151 80.418 28.9411 79.664V76.7ZM39.3931 86.58L37.3651 84.526L39.3931 82.498L41.1091 84.214L42.8251 82.498L44.8531 84.526L42.8251 86.58L41.1091 84.838L39.3931 86.58ZM46.8031 76.856C47.9211 76.856 48.7791 76.674 49.4031 76.362C49.3511 75.92 49.2991 75.452 49.2991 74.958V60.918H51.9771V74.516C51.9771 76.726 52.9651 76.856 55.0451 76.856V79.274C55.0451 79.95 54.6811 80.314 54.0051 80.314C52.0551 80.314 50.3131 79.456 49.6371 77.246L49.2471 79.118C48.5191 79.872 47.2971 80.314 45.7891 80.314V77.87C45.7891 77.194 46.1531 76.856 46.8031 76.856ZM55.081 76.856C55.783 76.856 56.433 76.83 57.057 76.83C56.225 75.894 55.705 74.698 55.705 73.242C55.705 70.486 57.655 67.782 61.425 67.782C64.389 67.782 66.053 69.446 67.119 71.578L65.013 72.956C64.285 72.072 63.063 70.928 61.113 70.928C59.085 70.928 58.097 72.15 58.097 73.372C58.097 74.282 58.643 76.336 62.361 76.336C63.947 76.336 66.443 75.816 68.237 75.452L68.211 75.478L68.237 75.452L68.549 78.182C64.805 79.534 58.435 80.314 54.041 80.314V77.896C54.041 77.194 54.405 76.856 55.081 76.856ZM81.8098 80.314C79.2878 80.314 77.1038 78.884 77.1038 74.958V60.918H79.7818V74.516C79.7818 76.726 80.7698 76.856 82.8498 76.856V79.274C82.8498 79.95 82.4858 80.314 81.8098 80.314ZM82.8838 76.856C83.4298 76.856 83.9758 76.83 84.4958 76.778C83.7678 75.66 83.3518 74.412 83.3518 73.19C83.3518 70.876 84.9118 69.134 87.0958 68.51L87.3558 67.106C93.3358 67.86 97.7558 71.63 97.7558 75.738C97.7558 78.702 95.4678 80.548 91.8278 80.548C89.5138 80.548 88.0838 79.82 86.7318 78.702C84.8858 79.69 83.3778 80.314 81.8438 80.314V77.896C81.8438 77.22 82.2078 76.856 82.8838 76.856ZM85.3538 73.268C85.3538 74.594 86.1338 75.608 87.2778 76.336C89.0718 75.842 90.3718 74.906 90.3718 73.346C90.3718 72.098 89.5398 70.642 87.8498 70.642C86.3938 70.642 85.3538 71.708 85.3538 73.268ZM92.4258 73.164C92.4258 74.828 91.4638 76.258 90.0598 77.35C90.7098 77.48 91.3598 77.558 92.0358 77.558C92.7638 77.558 95.4418 77.428 95.4418 75.868C95.4418 74.958 94.5318 73.216 92.1398 71.682C92.3218 72.124 92.4258 72.618 92.4258 73.164ZM104.865 80.314C102.343 80.314 100.159 78.884 100.159 74.958V60.918H102.837V74.516C102.837 76.726 103.825 76.856 105.905 76.856V79.274C105.905 79.95 105.541 80.314 104.865 80.314ZM105.912 76.856C107.186 76.856 108.538 76.622 109.552 76.206C109.5 75.816 109.474 75.348 109.474 74.854V71.136H112.1V74.438C112.1 76.648 113.244 76.856 115.038 76.856V79.274C115.038 79.95 114.674 80.314 113.998 80.314C111.84 80.314 110.202 79.482 109.656 76.882L109.084 79.118C108.044 79.872 106.406 80.314 104.898 80.314V77.87C104.898 77.194 105.262 76.856 105.912 76.856ZM110.618 68.692L108.434 66.482L110.618 64.298L112.802 66.482L110.618 68.692ZM115.002 76.856C116.12 76.856 116.978 76.674 117.602 76.362C117.55 75.92 117.498 75.452 117.498 74.958V60.918H120.176V74.516C120.176 76.726 121.164 76.856 123.244 76.856V79.274C123.244 79.95 122.88 80.314 122.204 80.314C120.254 80.314 118.512 79.456 117.836 77.246L117.446 79.118C116.718 79.872 115.496 80.314 113.988 80.314V77.87C113.988 77.194 114.352 76.856 115.002 76.856ZM131.579 62.05L132.567 61.894L132.853 63.896C133.061 65.274 132.385 66.184 131.241 66.184C130.123 66.184 129.837 65.274 129.707 64.676C129.447 65.586 128.927 66.47 127.757 66.47C126.457 66.47 126.067 65.326 126.067 64.052V63.09H127.133V63.974C127.133 65.144 127.471 65.43 127.939 65.43C128.797 65.43 129.447 64.416 129.447 62.804H130.409C130.409 64.286 130.513 65.144 131.371 65.144C131.501 65.144 132.047 65.118 131.891 64.078L131.579 62.05ZM123.28 76.856C123.618 76.856 123.956 76.83 124.294 76.83C124.398 73.138 125.724 68.276 129.624 68.276C132.016 68.276 133.758 70.07 133.758 72.618C133.758 74.126 133.134 75.452 132.12 76.544C133.368 76.752 134.798 76.856 135.942 76.856V79.274C135.942 79.95 135.604 80.314 134.928 80.314C134.668 80.314 134.434 80.288 134.2 80.262C135.058 82.966 133.212 84.994 130.066 84.994C127.024 84.994 125.256 83.07 124.58 80.132C123.8 80.262 123.02 80.314 122.24 80.314V77.896C122.24 77.22 122.604 76.856 123.28 76.856ZM129.416 71.24C127.258 71.24 126.53 74.256 126.478 76.57C129.572 76.024 131.418 74.698 131.418 73.164C131.418 72.15 130.612 71.24 129.416 71.24ZM129.702 78.442C128.844 78.936 127.908 79.326 126.894 79.612C127.518 81.302 128.766 82.056 130.248 82.056C131.288 82.056 132.432 81.692 132.432 80.99C132.432 80.34 131.47 79.404 129.702 78.442ZM146.818 74.516L147.312 72.41L149.73 72.982L149.366 74.698C149.002 76.232 149.808 76.856 151.472 76.856C152.252 76.856 153.188 76.518 153.188 75.816C153.188 75.27 152.668 73.372 151.732 70.616L154.358 69.706C155.19 72.046 155.762 74.282 155.762 75.66C155.762 78 154.02 80.054 150.952 80.054C148.794 80.054 147.234 79.04 146.792 77.22L146.116 79.222C145.596 79.664 144.686 80.314 143.386 80.314C142.034 80.314 140.526 79.612 139.46 78.286C138.16 79.924 136.938 80.314 134.936 80.314V77.896C134.936 77.194 135.3 76.856 135.976 76.856C137.302 76.856 138.03 76.31 138.602 75.374L140.422 72.41L142.398 73.632L141.124 75.738C142.008 76.518 143.022 77.012 144.426 77.012C145.362 77.012 146.038 76.778 146.662 76.466C146.61 75.868 146.662 75.218 146.818 74.516Z" fill="#3C1C54"/>
<rect x="168.986" y="3.06598" width="88.0137" height="88.0137" rx="19.5312" fill="#3C1C54"/>
<path d="M246 64.4097V56.4148H206.199L197.683 22.3493H177V30.3443H191.426L200.29 64.4097H246Z" fill="#CFA8FF"/>
<circle cx="211.587" cy="73.9689" r="5.90932" fill="#CFA8FF"/>
<circle cx="233.486" cy="73.9689" r="5.90932" fill="#CFA8FF"/>
<rect x="209.346" y="46.0225" width="32.2492" height="7.78027" transform="rotate(-15 209.346 46.0225)" fill="#EAD9FF"/>
<rect x="215.385" y="21.9667" width="20.7669" height="7.78027" transform="rotate(-11 215.385 21.9667)" fill="#EAD9FF"/>
<rect x="206.641" y="28.6062" width="20.7669" height="7.78027" transform="rotate(11 206.641 28.6062)" fill="#EAD9FF"/>
</svg>
